<svg width="177" height="227" xmlns="http://www.w3.org/2000/svg"><filter id="blurMe"><feGaussianBlur in="SourceGraphic" stdDeviation="10" /></filter><rect x="0" y="0" width="177" height="227" fill="black" /><path id="glow_path" d="M17 59L 51 59A 8 8, 0, 0, 0, 59 51L 59  17A 8 8, 0, 0, 1, 67 9L 110  9A 8 8, 0, 0, 1, 118 17L 118 51A 8 8, 0, 0, 0, 126 59L 151 59A 8 8, 0, 0, 1, 159 67L 159 101A 8 8, 0, 0, 1, 151 109L 126 109A 8 8, 0, 0, 0, 118 117L 118 201A 8 8, 0, 0, 1, 110 209L 67 209A 8 8, 0, 0, 1, 59 201L 59 117A 8 8, 0, 0, 0, 51 109L 17 109A 8 8, 0, 0, 1,  9 101L  9 67A 8 8, 0, 0, 1, 17 59" stroke="blue" fill="none" stroke-width="2" fill-opacity="0.5" filter="url(#blurMe)"></path><path id="main_path" d="M17 59L 51 59A 8 8, 0, 0, 0, 59 51L 59  17A 8 8, 0, 0, 1, 67 9L 110  9A 8 8, 0, 0, 1, 118 17L 118 51A 8 8, 0, 0, 0, 126 59L 151 59A 8 8, 0, 0, 1, 159 67L 159 101A 8 8, 0, 0, 1, 151 109L 126 109A 8 8, 0, 0, 0, 118 117L 118 201A 8 8, 0, 0, 1, 110 209L 67 209A 8 8, 0, 0, 1, 59 201L 59 117A 8 8, 0, 0, 0, 51 109L 17 109A 8 8, 0, 0, 1,  9 101L  9 67A 8 8, 0, 0, 1, 17 59" stroke="white" fill="none" stroke-width="2" fill-opacity="0.5"></path><text class="blur-text"   text-anchor="middle" x="34" y="102" font-size="50" font-family="sans-serif" fill="white" filter="url(#blurMe)">V</text><text class="bright-text" text-anchor="middle" x="34" y="102" font-size="50" font-family="sans-serif" fill="white">V</text><text class="blur-text"   text-anchor="middle" x="84" y="102" font-size="50" font-family="sans-serif" fill="white" filter="url(#blurMe)">A</text><text class="bright-text" text-anchor="middle" x="84" y="102" font-size="50" font-family="sans-serif" fill="white">A</text><text class="blur-text"   text-anchor="middle" x="134" y="102" font-size="50" font-family="sans-serif" fill="white" filter="url(#blurMe)">N</text><text class="bright-text" text-anchor="middle" x="134" y="102" font-size="50" font-family="sans-serif" fill="white">N</text><text class="blur-text"   text-anchor="middle" x="84" y="52" font-size="50" font-family="sans-serif" fill="white" filter="url(#blurMe)">E</text><text class="bright-text" text-anchor="middle" x="84" y="52" font-size="50" font-family="sans-serif" fill="white">E</text><text class="blur-text"   text-anchor="middle" x="84" y="152" font-size="50" font-family="sans-serif" fill="white" filter="url(#blurMe)">S</text><text class="bright-text" text-anchor="middle" x="84" y="152" font-size="50" font-family="sans-serif" fill="white">S</text><text class="blur-text"   text-anchor="middle" x="84" y="202" font-size="50" font-family="sans-serif" fill="white" filter="url(#blurMe)">T</text><text class="bright-text" text-anchor="middle" x="84" y="202" font-size="50" font-family="sans-serif" fill="white">T</text></svg>